<svg width="512" height="512" viewBox="0 0 512 512" fill="none" xmlns="http://www.w3.org/2000/svg">
<path fill-rule="evenodd" clip-rule="evenodd" d="M100.582 321.392L33.5208 389.017C34.506 386.86 35.6153 384.465 36.843 381.861C42.5824 369.688 50.9043 352.972 61.2324 334.799C81.9435 298.355 110.52 256.421 142.306 233.298C189.333 199.088 245.1 192.606 293.263 187.049L293.399 187.034C314.231 184.63 333.73 182.381 350.251 178.04C398.607 165.335 427.846 152.471 471.355 125.284C455.932 142.376 442.425 158.285 430.204 173.992C405.775 205.39 386.52 235.932 367.341 273.443L395.191 200.681C395.529 199.797 395.352 198.798 394.73 198.084C394.108 197.37 393.142 197.058 392.22 197.273L298.62 219.054C297.357 219.348 296.514 220.544 296.656 221.832L296.658 221.853L296.667 221.94L296.704 222.3C296.736 222.62 296.781 223.099 296.836 223.727C296.946 224.983 297.091 226.832 297.235 229.191C297.523 233.909 297.802 240.659 297.765 248.763C297.691 264.986 296.348 286.56 291.307 308.09C286.261 329.643 277.554 350.95 262.894 366.837C248.31 382.64 227.695 393.24 198.4 393.24C151.155 393.24 128.007 375.437 116.535 358.085C110.75 349.334 107.851 340.57 106.4 333.988C105.675 330.701 105.315 327.969 105.136 326.074C105.047 325.126 105.003 324.389 104.981 323.897C104.97 323.651 104.965 323.467 104.962 323.348L104.96 323.22L104.96 323.192C104.959 322.156 104.333 321.222 103.375 320.827C102.415 320.432 101.313 320.655 100.582 321.392ZM208.818 299.52H227.254C224.819 297.856 221.971 295.914 219.124 293.982C215.386 291.446 211.656 288.932 208.865 287.089C207.466 286.166 206.32 285.421 205.531 284.929C205.2 284.722 204.956 284.575 204.793 284.482C203.775 284.144 203.04 283.183 203.04 282.051C203.04 269.591 206.374 258.194 211.9 249.836C217.412 241.498 225.315 235.928 234.4 235.928C243.485 235.928 251.388 241.498 256.9 249.836C262.426 258.194 265.76 269.591 265.76 282.051C265.76 294.512 262.426 305.909 256.9 314.267C251.388 322.605 243.485 328.174 234.4 328.174C221.668 328.174 211.347 317.348 206.396 302.91C206.128 302.128 206.254 301.265 206.734 300.592C207.215 299.919 207.991 299.52 208.818 299.52Z" fill="white"/>
</svg>
