<svg width="256" height="256" viewBox="0 0 256 256" fill="none" xmlns="http://www.w3.org/2000/svg">
<circle cx="128" cy="128" r="128" fill="#1F2023"/>
<path d="M112.32 80.36H105.4V84.2H124.64V80.36H117.04V77.96H125.84V74.12H117.04V71.12H112.32V74.12H104.08V77.96H112.32V80.36ZM107.84 89.88H121.72V93.8H126.12V86.16H103.64V93.8H107.84V89.88ZM102.08 72.36H91.32V75.96H102.08V72.36ZM103.36 77.72H89.32V81.48H103.36V77.72ZM102.16 83.28H91.08V86.92H102.16V83.28ZM91.08 92.32H102.16V88.76H91.08V92.32ZM98.32 102.6H94.84V98H98.32V102.6ZM102.24 94.28H90.96V107.92H94.84V106.32H102.24V105.12C103.12 106.04 104.16 107.56 104.6 108.6C112 105.52 113.08 100.12 113.4 91.76H108.96C108.72 98.44 108.16 102.32 102.24 104.64V94.28ZM121.08 104.04C120.48 104.04 120.4 103.92 120.4 102.76V91.8H116V102.8C116 106.84 116.8 108.16 120.28 108.16H122.96C125.84 108.16 126.88 106.64 127.28 100.72C126.08 100.4 124.24 99.68 123.36 98.96C123.28 103.4 123.12 104.04 122.48 104.04H121.08ZM136.56 74.72L136.76 79.88C137.8 79.72 139.2 79.6 140 79.56C141.84 79.44 145.28 79.32 146.88 79.24C145.96 81.12 144.8 83.84 143.68 86.48C135.64 86.84 130 91.56 130 97.76C130 101.8 132.64 104.24 136.16 104.24C138.88 104.24 140.8 103.12 142.4 100.72C143.8 98.52 145.48 94.52 146.92 91.12C150.36 91.6 153.56 92.8 156.4 94.36C155.08 98 152.28 101.8 146.24 104.4L150.48 107.88C155.84 105.08 158.88 101.56 160.64 97.04C161.88 97.96 163.04 98.88 164.08 99.84L166.4 94.28C165.24 93.48 163.8 92.56 162.12 91.6C162.52 89.36 162.72 86.88 162.88 84.2L157.64 83.6C157.76 84.8 157.76 86.4 157.64 87.96C157.6 88.4 157.56 88.84 157.52 89.32C154.92 88.2 151.96 87.24 148.84 86.76C150.28 83.36 151.8 79.88 152.84 78.16C153.16 77.6 153.64 77.08 154.2 76.48L151 74C150.32 74.28 149.28 74.52 148.28 74.56C146.4 74.72 142.16 74.92 139.88 74.92C139 74.92 137.64 74.84 136.56 74.72ZM134.68 97C134.68 94.48 137.2 91.76 141.68 91.08C140.56 93.6 139.48 96.12 138.44 97.6C137.72 98.6 137.16 99 136.36 99C135.44 99 134.68 98.32 134.68 97Z" fill="white"/>
<path d="M43.968 185.773C42.5315 185.773 41.2017 185.656 39.9787 185.423C38.7751 185.21 37.8142 184.957 37.0959 184.666L39.5419 176.455C41.0755 176.901 42.4441 177.115 43.6477 177.095C44.8513 177.076 45.9093 176.697 46.8217 175.96C47.7536 175.241 48.5398 174.038 49.1804 172.349L50.0831 169.932L33.8636 124.273H45.0455L55.3537 158.051H55.8196L66.157 124.273H77.3679L59.4595 174.416C58.6248 176.785 57.5182 178.813 56.1399 180.502C54.7616 182.21 53.0727 183.511 51.0732 184.404C49.093 185.317 46.7247 185.773 43.968 185.773ZM102.651 169.874C98.2828 169.874 94.4973 168.913 91.2942 166.991C88.0911 165.069 85.6062 162.38 83.8397 158.925C82.0925 155.469 81.2189 151.431 81.2189 146.811C81.2189 142.191 82.0925 138.143 83.8397 134.668C85.6062 131.193 88.0911 128.495 91.2942 126.573C94.4973 124.651 98.2828 123.69 102.651 123.69C107.019 123.69 110.804 124.651 114.007 126.573C117.21 128.495 119.686 131.193 121.433 134.668C123.199 138.143 124.083 142.191 124.083 146.811C124.083 151.431 123.199 155.469 121.433 158.925C119.686 162.38 117.21 165.069 114.007 166.991C110.804 168.913 107.019 169.874 102.651 169.874ZM102.709 161.429C105.077 161.429 107.057 160.779 108.649 159.478C110.241 158.158 111.425 156.391 112.202 154.178C112.998 151.965 113.396 149.5 113.396 146.782C113.396 144.045 112.998 141.57 112.202 139.357C111.425 137.124 110.241 135.348 108.649 134.028C107.057 132.708 105.077 132.048 102.709 132.048C100.282 132.048 98.2634 132.708 96.6522 134.028C95.0603 135.348 93.8664 137.124 93.0705 139.357C92.294 141.57 91.9057 144.045 91.9057 146.782C91.9057 149.5 92.294 151.965 93.0705 154.178C93.8664 156.391 95.0603 158.158 96.6522 159.478C98.2634 160.779 100.282 161.429 102.709 161.429ZM133.029 169V124.273H143.105V131.873H143.629C144.561 129.31 146.104 127.311 148.259 125.874C150.414 124.418 152.986 123.69 155.975 123.69C159.004 123.69 161.557 124.428 163.634 125.903C165.73 127.359 167.206 129.349 168.06 131.873H168.526C169.516 129.388 171.185 127.408 173.534 125.933C175.903 124.438 178.708 123.69 181.95 123.69C186.065 123.69 189.424 124.991 192.025 127.592C194.627 130.194 195.927 133.989 195.927 138.978V169H185.357V140.609C185.357 137.833 184.619 135.804 183.144 134.523C181.668 133.222 179.863 132.572 177.728 132.572C175.185 132.572 173.195 133.368 171.758 134.96C170.341 136.532 169.632 138.58 169.632 141.104V169H159.295V140.172C159.295 137.862 158.596 136.018 157.199 134.639C155.82 133.261 154.015 132.572 151.782 132.572C150.268 132.572 148.89 132.96 147.647 133.737C146.405 134.494 145.415 135.571 144.677 136.969C143.94 138.347 143.571 139.958 143.571 141.803V169H133.029ZM206.621 169V124.273H217.162V169H206.621ZM211.921 117.925C210.251 117.925 208.815 117.371 207.611 116.265C206.408 115.139 205.806 113.79 205.806 112.217C205.806 110.625 206.408 109.276 207.611 108.17C208.815 107.044 210.251 106.481 211.921 106.481C213.61 106.481 215.046 107.044 216.231 108.17C217.434 109.276 218.036 110.625 218.036 112.217C218.036 113.79 217.434 115.139 216.231 116.265C215.046 117.371 213.61 117.925 211.921 117.925Z" fill="white"/>
</svg>
