<svg width="100" height="100" viewBox="0 0 100 100" fill="none" xmlns="http://www.w3.org/2000/svg">
<rect width="100" height="100" rx="16" fill="#27282B"/>
<path fill-rule="evenodd" clip-rule="evenodd" d="M66.4062 65.9601L76.7188 39.0168L58.4375 43.271C58.4375 43.271 62.1875 77.3046 38.75 77.3046C20 77.3046 20 63.1239 20 63.1239L5 78.25C5 78.25 14.8993 54.3283 27.5 45.1618C36.8067 38.3914 47.831 37.1196 57.2207 36.0364C61.3098 35.5647 65.089 35.1287 68.2812 34.2899C78.8039 31.5251 84.6502 28.7308 95 22C90.8913 26.4298 87.4504 30.3936 84.4188 34.2899C77.2693 43.4788 72.3959 52.2927 66.4062 65.9601ZM45.7812 63.5966C48.8879 63.5966 51.4062 59.7872 51.4062 55.0882C51.4062 50.3891 48.8879 46.5797 45.7812 46.5797C42.6746 46.5797 40.1562 50.3891 40.1562 55.0882C40.1567 54.9827 46 59 46 59H40.7847C41.721 61.7308 43.6071 63.5966 45.7812 63.5966Z" fill="white"/>
<path d="M76.7188 39.0168L77.1857 39.1955C77.2518 39.0228 77.2172 38.8277 77.0957 38.6883C76.9741 38.5488 76.7856 38.4879 76.6054 38.5298L76.7188 39.0168ZM66.4062 65.9601L65.9393 65.7814C65.8422 66.0349 65.9653 66.3196 66.2165 66.4227C66.4677 66.5257 66.7552 66.4095 66.8642 66.1608L66.4062 65.9601ZM58.4375 43.271L58.3242 42.784C58.0776 42.8414 57.9128 43.0741 57.9405 43.3258L58.4375 43.271ZM20 63.1239H20.5C20.5 62.9213 20.3777 62.7388 20.1904 62.6616C20.003 62.5845 19.7876 62.628 19.645 62.7719L20 63.1239ZM5 78.25L4.538 78.0588C4.44665 78.2796 4.52422 78.5341 4.72315 78.6664C4.92209 78.7986 5.18681 78.7717 5.35503 78.6021L5 78.25ZM27.5 45.1618L27.2059 44.7574L27.5 45.1618ZM57.2207 36.0364L57.1634 35.5397L57.2207 36.0364ZM68.2812 34.2899L68.1542 33.8063L68.2812 34.2899ZM95 22L95.3666 22.34C95.5382 22.155 95.545 21.871 95.3825 21.678C95.2199 21.4849 94.939 21.4432 94.7274 21.5808L95 22ZM84.4188 34.2899L84.0242 33.9829V33.9829L84.4188 34.2899ZM40.1562 55.0882H39.6562C39.6562 55.3639 39.8795 55.5876 40.1552 55.5882C40.431 55.5887 40.6551 55.3659 40.6562 55.0902L40.1562 55.0882ZM46 59V59.5C46.219 59.5 46.4125 59.3575 46.4775 59.1483C46.5425 58.9392 46.4637 58.7121 46.2833 58.588L46 59ZM40.7847 59V58.5C40.6232 58.5 40.4717 58.578 40.3778 58.7094C40.284 58.8408 40.2594 59.0094 40.3117 59.1622L40.7847 59ZM76.2518 38.8381L65.9393 65.7814L66.8732 66.1388L77.1857 39.1955L76.2518 38.8381ZM58.5508 43.758L76.8321 39.5038L76.6054 38.5298L58.3242 42.784L58.5508 43.758ZM38.75 77.8046C44.747 77.8046 49.041 75.6206 52.0813 72.326C55.1067 69.0475 56.8631 64.7006 57.8696 60.4018C58.8773 56.0984 59.1425 51.8038 59.1572 48.5911C59.1646 46.9832 59.1092 45.6427 59.0519 44.7029C59.0233 44.233 58.9941 43.8631 58.972 43.6098C58.961 43.4831 58.9517 43.3856 58.9451 43.3193C58.9418 43.2862 58.9392 43.2609 58.9374 43.2436C58.9365 43.235 58.9358 43.2283 58.9353 43.2238C58.9351 43.2215 58.9349 43.2197 58.9347 43.2185C58.9347 43.2178 58.9346 43.2173 58.9346 43.217C58.9345 43.2165 58.9345 43.2162 58.4375 43.271C57.9405 43.3258 57.9405 43.3257 57.9405 43.3258C57.9405 43.326 57.9406 43.3263 57.9406 43.3267C57.9407 43.3275 57.9408 43.3288 57.941 43.3306C57.9414 43.3343 57.942 43.34 57.9428 43.3477C57.9445 43.3632 57.9469 43.3867 57.95 43.4179C57.9562 43.4804 57.9651 43.5741 57.9758 43.6967C57.9972 43.9419 58.0257 44.3032 58.0538 44.7638C58.11 45.6853 58.1645 47.0037 58.1572 48.5865C58.1427 51.755 57.8806 55.9688 56.896 60.1738C55.9103 64.3834 54.2097 68.5449 51.3464 71.6478C48.498 74.7344 44.4717 76.8046 38.75 76.8046V77.8046ZM20 63.1239C19.5 63.1239 19.5 63.1243 19.5 63.1248C19.5 63.125 19.5 63.1255 19.5 63.1259C19.5 63.1268 19.5 63.1278 19.5 63.1291C19.5 63.1317 19.5001 63.1352 19.5001 63.1395C19.5002 63.1481 19.5004 63.16 19.5007 63.1753C19.5013 63.2058 19.5026 63.2494 19.5051 63.3052C19.51 63.4169 19.5197 63.5776 19.5388 63.7803C19.5771 64.1856 19.6532 64.76 19.8047 65.4473C20.1073 66.8206 20.7129 68.6541 21.9267 70.49C24.3737 74.1914 29.2275 77.8046 38.75 77.8046V76.8046C29.5225 76.8046 25.0013 73.3275 22.7608 69.9385C21.6308 68.2293 21.0646 66.5177 20.7813 65.2321C20.6397 64.5899 20.5694 64.0565 20.5344 63.6863C20.5169 63.5012 20.5083 63.3573 20.5041 63.2612C20.502 63.2132 20.501 63.1771 20.5005 63.154C20.5002 63.1424 20.5001 63.134 20.5 63.129C20.5 63.1265 20.5 63.1248 20.5 63.1239C20.5 63.1235 20.5 63.1233 20.5 63.1233L20.5 63.1235C20.5 63.1237 20.5 63.1239 20 63.1239ZM5.35503 78.6021L20.355 63.476L19.645 62.7719L4.64497 77.8979L5.35503 78.6021ZM27.2059 44.7574C20.8133 49.4078 15.1447 57.7617 11.09 64.8963C9.05733 68.4731 7.42032 71.7615 6.29141 74.1558C5.72685 75.3531 5.2891 76.3274 4.99222 77.0031C4.84377 77.3409 4.73053 77.6041 4.65424 77.7832C4.6161 77.8727 4.58719 77.9413 4.56775 77.9876C4.55802 78.0108 4.55066 78.0284 4.5457 78.0403C4.54321 78.0463 4.54133 78.0508 4.54004 78.0539C4.5394 78.0554 4.53891 78.0566 4.53857 78.0574C4.5384 78.0578 4.53825 78.0582 4.53817 78.0584C4.53806 78.0587 4.538 78.0588 5 78.25C5.462 78.4412 5.46201 78.4412 5.46206 78.4411C5.46212 78.4409 5.46221 78.4407 5.46234 78.4404C5.4626 78.4397 5.46301 78.4388 5.46358 78.4374C5.4647 78.4347 5.46643 78.4305 5.46875 78.425C5.4734 78.4138 5.48043 78.397 5.48982 78.3746C5.5086 78.3299 5.53682 78.2629 5.57426 78.175C5.64914 77.9993 5.76088 77.7395 5.90773 77.4054C6.20144 76.737 6.63552 75.7708 7.19591 74.5822C8.31688 72.2048 9.94225 68.9399 11.9595 65.3904C16.0046 58.2725 21.586 50.0823 27.7941 45.5661L27.2059 44.7574ZM57.1634 35.5397C47.7908 36.6209 36.6343 37.8985 27.2059 44.7574L27.7941 45.5661C36.9791 38.8843 47.8711 37.6183 57.278 36.5331L57.1634 35.5397ZM68.1542 33.8063C65.0034 34.6342 61.2629 35.0668 57.1634 35.5397L57.278 36.5331C61.3568 36.0626 65.1746 35.6232 68.4083 34.7735L68.1542 33.8063ZM94.7274 21.5808C84.4123 28.2891 78.6147 31.0579 68.1542 33.8063L68.4083 34.7735C78.9931 31.9924 84.8882 29.1725 95.2726 22.4192L94.7274 21.5808ZM84.8134 34.597C87.8334 30.7155 91.2641 26.7631 95.3666 22.34L94.6334 21.66C90.5185 26.0965 87.0674 30.0716 84.0242 33.9829L84.8134 34.597ZM66.8642 66.1608C72.8438 52.5162 77.6978 43.7422 84.8134 34.597L84.0242 33.9829C76.8408 43.2153 71.9479 52.0693 65.9483 65.7594L66.8642 66.1608ZM50.9062 55.0882C50.9062 57.3536 50.2983 59.3817 49.3416 60.8288C48.3824 62.2797 47.1134 63.0966 45.7812 63.0966V64.0966C47.5557 64.0966 49.0992 63.0088 50.1758 61.3802C51.255 59.7478 51.9062 57.5218 51.9062 55.0882H50.9062ZM45.7812 47.0797C47.1134 47.0797 48.3824 47.8966 49.3416 49.3475C50.2983 50.7946 50.9062 52.8227 50.9062 55.0882H51.9062C51.9062 52.6545 51.255 50.4285 50.1758 48.7961C49.0992 47.1675 47.5557 46.0797 45.7812 46.0797V47.0797ZM40.6562 55.0882C40.6562 52.8227 41.2642 50.7946 42.2209 49.3475C43.1801 47.8966 44.4491 47.0797 45.7812 47.0797V46.0797C44.0068 46.0797 42.4633 47.1675 41.3867 48.7961C40.3075 50.4285 39.6562 52.6545 39.6562 55.0882H40.6562ZM46 59C46.2833 58.588 46.2832 58.588 46.2832 58.5879C46.2831 58.5879 46.2831 58.5879 46.283 58.5878C46.2828 58.5877 46.2825 58.5875 46.2822 58.5872C46.2815 58.5868 46.2804 58.586 46.279 58.585C46.2762 58.5831 46.272 58.5802 46.2664 58.5764C46.2553 58.5688 46.2389 58.5575 46.2175 58.5428C46.1746 58.5133 46.1118 58.4702 46.0318 58.4153C45.8719 58.3056 45.6435 58.149 45.3694 57.9613C44.8213 57.5862 44.0902 57.0869 43.359 56.5908C42.6282 56.095 41.8956 55.6012 41.345 55.2377C41.0704 55.0563 40.8377 54.9051 40.6722 54.8018C40.5909 54.7511 40.5187 54.7074 40.4635 54.6769C40.4395 54.6637 40.4016 54.6433 40.3617 54.627C40.3507 54.6226 40.2936 54.5985 40.2195 54.5897C40.1915 54.5864 40.0778 54.5731 39.9497 54.6316C39.8749 54.6657 39.7927 54.7259 39.7326 54.8219C39.6735 54.9165 39.6565 55.0126 39.6563 55.0861L40.6562 55.0902C40.656 55.1629 40.6392 55.2583 40.5804 55.3523C40.5207 55.4477 40.439 55.5075 40.3649 55.5413C40.2383 55.5991 40.1267 55.5857 40.1015 55.5827C40.0607 55.5779 40.0301 55.5689 40.0172 55.5649C40.0018 55.5601 39.9903 55.5556 39.9844 55.5532C39.9667 55.5459 39.9616 55.5421 39.9804 55.5525C40.0108 55.5693 40.0642 55.6011 40.1427 55.6501C40.2969 55.7463 40.5208 55.8917 40.794 56.0721C41.3391 56.4321 42.0675 56.923 42.7976 57.4183C43.5272 57.9133 44.257 58.4118 44.8046 58.7866C45.0783 58.9739 45.3064 59.1303 45.466 59.2399C45.5458 59.2946 45.6085 59.3377 45.6513 59.3671C45.6726 59.3817 45.689 59.393 45.7001 59.4006C45.7056 59.4044 45.7097 59.4072 45.7125 59.4091C45.7139 59.4101 45.715 59.4108 45.7157 59.4113C45.716 59.4116 45.7163 59.4117 45.7165 59.4118C45.7166 59.4119 45.7166 59.412 45.7167 59.412C45.7167 59.412 45.7167 59.412 46 59ZM40.7847 59.5H46V58.5H40.7847V59.5ZM45.7812 63.0966C43.9197 63.0966 42.1634 61.4795 41.2577 58.8378L40.3117 59.1622C41.2786 61.9821 43.2945 64.0966 45.7812 64.0966V63.0966Z" fill="#27282B"/>
</svg>
