<svg width="100" height="100" viewBox="0 0 100 100" fill="none" xmlns="http://www.w3.org/2000/svg">
<path fill-rule="evenodd" clip-rule="evenodd" d="M19.645 62.7719L6.54703 75.9799C6.73946 75.5586 6.95612 75.0908 7.1959 74.5822C8.31688 72.2048 9.94225 68.9399 11.9594 65.3904C16.0046 58.2725 21.586 50.0823 27.7941 45.5661C36.9791 38.8843 47.8711 37.6183 57.278 36.5331L57.3045 36.53C61.3733 36.0606 65.1816 35.6213 68.4083 34.7735C77.8529 32.292 83.5638 29.7795 92.0615 24.4695C89.0491 27.8078 86.4112 30.915 84.0242 33.9829C79.2529 40.1152 75.4921 46.0805 71.7464 53.4068L77.1857 39.1955C77.2518 39.0228 77.2172 38.8277 77.0957 38.6883C76.9741 38.5488 76.7856 38.4879 76.6054 38.5298L58.3242 42.784C58.0776 42.8414 57.9129 43.075 57.9406 43.3267L57.941 43.3306L57.9428 43.3477L57.95 43.4179C57.9562 43.4804 57.9651 43.574 57.9758 43.6967C57.9972 43.9419 58.0257 44.3032 58.0538 44.7638C58.11 45.6853 58.1645 47.0037 58.1572 48.5865C58.1427 51.755 57.8806 55.9688 56.896 60.1738C55.9103 64.3834 54.2097 68.5449 51.3464 71.6478C48.498 74.7344 44.4717 76.8046 38.75 76.8046C29.5224 76.8046 25.0013 73.3275 22.7608 69.9385C21.6308 68.2293 21.0646 66.5177 20.7813 65.2321C20.6397 64.5899 20.5694 64.0565 20.5344 63.6863C20.5169 63.5012 20.5083 63.3573 20.5041 63.2612C20.502 63.2132 20.501 63.1771 20.5005 63.154L20.5 63.129L20.5 63.1234C20.4998 62.921 20.3776 62.7387 20.1904 62.6616C20.003 62.5845 19.7876 62.628 19.645 62.7719ZM40.7847 58.5H44.3856C43.9101 58.175 43.3538 57.7956 42.7976 57.4183C42.0675 56.923 41.3391 56.4321 40.794 56.0721C40.5208 55.8917 40.2969 55.7463 40.1427 55.6501C40.0781 55.6098 40.0305 55.5811 39.9987 55.5628C39.7997 55.4968 39.6562 55.3092 39.6562 55.0881C39.6562 52.6545 40.3075 50.4285 41.3867 48.7961C42.4633 47.1675 44.0068 46.0797 45.7812 46.0797C47.5557 46.0797 49.0992 47.1675 50.1758 48.7961C51.255 50.4285 51.9062 52.6545 51.9062 55.0881C51.9062 57.5218 51.255 59.7478 50.1758 61.3802C49.0992 63.0088 47.5557 64.0965 45.7812 64.0965C43.2945 64.0965 41.2786 61.9821 40.3117 59.1622C40.2594 59.0094 40.284 58.8408 40.3778 58.7094C40.4717 58.578 40.6232 58.5 40.7847 58.5Z" fill="white"/>
</svg>
